<svg width="516" height="755" viewBox="0 0 516 755" fill="none" xmlns="http://www.w3.org/2000/svg">
<rect width="516" height="755" fill="#222222"/>
<path d="M258 234L78.6423 726.812L45.7723 714.849C22.4108 706.346 10.3705 680.51 18.8841 657.152L258 1.11558L258 234Z" fill="white"/>
<path d="M257.858 233L437.215 725.813L470.085 713.849C493.447 705.346 505.487 679.51 496.974 656.153L257.858 0.115639L257.858 233Z" fill="white"/>
<path d="M28.4683 433.732C31.173 425.536 38.8301 420 47.4609 420H468.039C476.67 420 484.327 425.536 487.032 433.732L506.398 492.419C510.882 506.006 500.763 520 486.456 520H27.6609C14.035 520 4.39824 506.672 8.66829 493.732L28.4683 433.732Z" fill="#17B897"/>
<path d="M218 550H298V735C298 746.046 289.046 755 278 755H238C226.954 755 218 746.046 218 735V550Z" fill="white"/>
</svg>
