<svg xmlns="http://www.w3.org/2000/svg" width="24" height="24" fill="#f7f7f7" fill-rule="evenodd" xmlns:v="https://vecta.io/nano"><path d="M12.997 10.78v-.035l-.023.035h.023z"/><path d="M0 0v24h24V0H0zm7.465 19.94h-3.56V9.226h3.56V19.94zM5.685 7.764H5.66c-1.194 0-1.97-.823-1.97-1.85 0-1.05.797-1.85 2.016-1.85s1.968.8 1.99 1.85c0 1.03-.772 1.85-2.015 1.85zM20.308 19.94h-3.562v-5.73c0-1.44-.515-2.422-1.804-2.422-.984 0-1.57.662-1.827 1.302-.094.23-.118.547-.118.868v5.983H9.435V9.226h3.562v1.518c.473-.728 1.318-1.77 3.2-1.77 2.344 0 4.1 1.53 4.1 4.82v6.143z"/></svg>