<svg width="24" height="24" viewBox="0 0 24 24" fill="none" xmlns="http://www.w3.org/2000/svg">
<path d="M22.72 7.04835C22.72 6.64733 22.6346 6.28576 22.4571 5.98335C22.2861 5.68094 22.0297 5.43113 21.6879 5.2339C18.8479 3.59696 16.0013 1.96001 13.1613 0.323066C12.3921 -0.117398 11.6558 -0.104249 10.8932 0.342788C9.76251 1.00677 4.09565 4.25437 2.41268 5.2339C1.71583 5.63492 1.38055 6.25289 1.38055 7.05493C1.38055 10.3485 1.38055 13.6487 1.38055 16.9423C1.38055 17.3368 1.46602 17.6852 1.63037 17.9876C1.8013 18.2966 2.06426 18.5596 2.41268 18.7634C4.10222 19.7429 9.76251 22.9839 10.8932 23.6545C11.6558 24.1015 12.3987 24.1212 13.1613 23.6742C16.0013 22.0307 18.8479 20.4003 21.6879 18.7634C22.0429 18.5596 22.2993 18.3032 22.4702 17.9876C22.6346 17.6852 22.72 17.3368 22.72 16.9423C22.72 16.9358 22.72 10.342 22.72 7.04835Z" fill="#222222"/>
<path d="M15.1204 13.721C14.5156 14.7926 13.3651 15.5224 12.0437 15.5224C10.7289 15.5224 9.58501 14.8058 8.9802 13.7408C8.68436 13.2214 8.51344 12.6298 8.51344 11.9921C8.51344 10.0396 10.0912 8.46178 12.0437 8.46178C13.3454 8.46178 14.4827 9.17178 15.0941 10.2236L18.1773 8.44863C16.948 6.33177 14.6602 4.9052 12.0371 4.9052C8.11899 4.9052 4.95029 8.08048 4.95029 11.9921C4.95029 13.274 5.29214 14.4836 5.89038 15.5224C7.11316 17.6458 9.41409 19.0789 12.0437 19.0789C14.6799 19.0789 16.9809 17.6392 18.2036 15.5026L15.1204 13.721Z" fill="#F7F7F7"/>
<path d="M19.0188 10.3157H18.3154V13.7145H19.0188V10.3157Z" fill="#F7F7F7"/>
<path d="M20.5769 10.3157H19.8735V13.7145H20.5769V10.3157Z" fill="#F7F7F7"/>
<path d="M21.1488 10.8876H17.75V11.591H21.1488V10.8876Z" fill="#F7F7F7"/>
<path d="M21.1488 12.4391H17.75V13.1425H21.1488V12.4391Z" fill="#F7F7F7"/>
</svg>
