<svg xmlns="http://www.w3.org/2000/svg" width="24" height="24" fill="none" xmlns:v="https://vecta.io/nano"><g clip-path="url(#A)"><path d="M12 0A12 12 0 0 0 0 12a12 12 0 0 0 12 12 12 12 0 0 0 12-12A12 12 0 0 0 12 0h0zM9.426 7.12a5.55 5.55 0 0 1 1.985.38v1.18a4.5 4.5 0 0 0-2.25-.566 3.44 3.44 0 0 0-2.625 1.087 4.1 4.1 0 0 0-1.012 2.906 3.9 3.9 0 0 0 .945 2.754 3.22 3.22 0 0 0 2.482 1.023c.864.02 1.717-.198 2.464-.634l-.004 1.08a5.54 5.54 0 0 1-2.625.555 4.21 4.21 0 0 1-3.228-1.297c-.834-.934-1.27-2.158-1.212-3.41a5.02 5.02 0 0 1 1.365-3.663 4.63 4.63 0 0 1 3.473-1.392l.12-.004h.122 0zm5.863.155h.836l-.555 2.652h1.66l.567-2.652h.8l-.555 2.652 1.732-.004-.15.697H17.9l-.412 1.98h1.852l-.176.698h-1.816l-.58 2.625h-.83l.567-2.625h-1.65l-.555 2.625h-.8l.555-2.625h-1.74l.13-.698h1.748l.4-1.976H12.77l.138-.697h1.826l.556-2.652zm.142 3.345L15 12.6h1.673l.423-1.98H15.43z" fill="#f7f7f7"/></g><defs><clipPath id="A"><path fill="#fff" d="M0 0h24v24H0z"/></clipPath></defs></svg>